<svg xmlns="http://www.w3.org/2000/svg" viewBox="0 0 240 240" width="240" height="240">
  <circle cx="0" cy="0" r="10" fill="currentColor" stroke="none" stroke-width="0"/>
  <circle cx="3" cy="3" r="10" fill="currentColor" stroke="none" stroke-width="0"/>
  <circle cx="6" cy="6" r="10" fill="currentColor" stroke="none" stroke-width="0"/>
  <circle cx="9" cy="9" r="10" fill="currentColor" stroke="none" stroke-width="0"/>
  <circle cx="12" cy="12" r="10" fill="currentColor" stroke="none" stroke-width="0"/>
  <circle cx="15" cy="15" r="10" fill="currentColor" stroke="none" stroke-width="0"/>
  <circle cx="18" cy="18" r="10" fill="currentColor" stroke="none" stroke-width="0"/>
  <circle cx="21" cy="21" r="10" fill="currentColor" stroke="none" stroke-width="0"/>
  <circle cx="24" cy="24" r="10" fill="currentColor" stroke="none" stroke-width="0"/>
  <circle cx="27" cy="27" r="10" fill="currentColor" stroke="none" stroke-width="0"/>
  <circle cx="30" cy="30" r="10" fill="currentColor" stroke="none" stroke-width="0"/>
  <circle cx="33" cy="33" r="10" fill="currentColor" stroke="none" stroke-width="0"/>
  <circle cx="36" cy="36" r="10" fill="currentColor" stroke="none" stroke-width="0"/>
  <circle cx="39" cy="39" r="10" fill="currentColor" stroke="none" stroke-width="0"/>
  <circle cx="42" cy="42" r="10" fill="currentColor" stroke="none" stroke-width="0"/>
  <circle cx="45" cy="45" r="10" fill="currentColor" stroke="none" stroke-width="0"/>
  <circle cx="48" cy="48" r="10" fill="currentColor" stroke="none" stroke-width="0"/>
  <circle cx="51" cy="51" r="10" fill="currentColor" stroke="none" stroke-width="0"/>
  <circle cx="54" cy="54" r="10" fill="currentColor" stroke="none" stroke-width="0"/>
  <circle cx="57" cy="57" r="10" fill="currentColor" stroke="none" stroke-width="0"/>
  <circle cx="60" cy="60" r="10" fill="currentColor" stroke="none" stroke-width="0"/>
  <circle cx="63" cy="63" r="10" fill="currentColor" stroke="none" stroke-width="0"/>
  <circle cx="66" cy="66" r="10" fill="currentColor" stroke="none" stroke-width="0"/>
  <circle cx="69" cy="69" r="10" fill="currentColor" stroke="none" stroke-width="0"/>
  <circle cx="72" cy="72" r="10" fill="currentColor" stroke="none" stroke-width="0"/>
  <circle cx="75" cy="75" r="10" fill="currentColor" stroke="none" stroke-width="0"/>
  <circle cx="78" cy="78" r="10" fill="currentColor" stroke="none" stroke-width="0"/>
  <circle cx="81" cy="81" r="10" fill="currentColor" stroke="none" stroke-width="0"/>
  <circle cx="84" cy="84" r="10" fill="currentColor" stroke="none" stroke-width="0"/>
  <circle cx="87" cy="87" r="10" fill="currentColor" stroke="none" stroke-width="0"/>
  <circle cx="90" cy="90" r="10" fill="currentColor" stroke="none" stroke-width="0"/>
  <circle cx="93" cy="93" r="10" fill="currentColor" stroke="none" stroke-width="0"/>
  <circle cx="96" cy="96" r="10" fill="currentColor" stroke="none" stroke-width="0"/>
  <circle cx="99" cy="99" r="10" fill="currentColor" stroke="none" stroke-width="0"/>
  <circle cx="102" cy="102" r="10" fill="currentColor" stroke="none" stroke-width="0"/>
  <circle cx="105" cy="105" r="10" fill="currentColor" stroke="none" stroke-width="0"/>
  <circle cx="108" cy="108" r="10" fill="currentColor" stroke="none" stroke-width="0"/>
  <circle cx="111" cy="111" r="10" fill="currentColor" stroke="none" stroke-width="0"/>
  <circle cx="114" cy="114" r="10" fill="currentColor" stroke="none" stroke-width="0"/>
  <circle cx="117" cy="117" r="10" fill="currentColor" stroke="none" stroke-width="0"/>
  <circle cx="120" cy="120" r="10" fill="currentColor" stroke="none" stroke-width="0"/>
  <circle cx="123" cy="123" r="10" fill="currentColor" stroke="none" stroke-width="0"/>
  <circle cx="126" cy="126" r="10" fill="currentColor" stroke="none" stroke-width="0"/>
  <circle cx="129" cy="129" r="10" fill="currentColor" stroke="none" stroke-width="0"/>
  <circle cx="132" cy="132" r="10" fill="currentColor" stroke="none" stroke-width="0"/>
  <circle cx="135" cy="135" r="10" fill="currentColor" stroke="none" stroke-width="0"/>
  <circle cx="138" cy="138" r="10" fill="currentColor" stroke="none" stroke-width="0"/>
  <circle cx="141" cy="141" r="10" fill="currentColor" stroke="none" stroke-width="0"/>
  <circle cx="144" cy="144" r="10" fill="currentColor" stroke="none" stroke-width="0"/>
  <circle cx="147" cy="147" r="10" fill="currentColor" stroke="none" stroke-width="0"/>
  <circle cx="150" cy="150" r="10" fill="currentColor" stroke="none" stroke-width="0"/>
  <circle cx="153" cy="153" r="10" fill="currentColor" stroke="none" stroke-width="0"/>
  <circle cx="156" cy="156" r="10" fill="currentColor" stroke="none" stroke-width="0"/>
  <circle cx="159" cy="159" r="10" fill="currentColor" stroke="none" stroke-width="0"/>
  <circle cx="162" cy="162" r="10" fill="currentColor" stroke="none" stroke-width="0"/>
  <circle cx="165" cy="165" r="10" fill="currentColor" stroke="none" stroke-width="0"/>
  <circle cx="168" cy="168" r="10" fill="currentColor" stroke="none" stroke-width="0"/>
  <circle cx="171" cy="171" r="10" fill="currentColor" stroke="none" stroke-width="0"/>
  <circle cx="174" cy="174" r="10" fill="currentColor" stroke="none" stroke-width="0"/>
  <circle cx="177" cy="177" r="10" fill="currentColor" stroke="none" stroke-width="0"/>
  <circle cx="180" cy="180" r="10" fill="currentColor" stroke="none" stroke-width="0"/>
  <circle cx="183" cy="183" r="10" fill="currentColor" stroke="none" stroke-width="0"/>
  <circle cx="186" cy="186" r="10" fill="currentColor" stroke="none" stroke-width="0"/>
  <circle cx="189" cy="189" r="10" fill="currentColor" stroke="none" stroke-width="0"/>
  <circle cx="192" cy="192" r="10" fill="currentColor" stroke="none" stroke-width="0"/>
  <circle cx="195" cy="195" r="10" fill="currentColor" stroke="none" stroke-width="0"/>
  <circle cx="198" cy="198" r="10" fill="currentColor" stroke="none" stroke-width="0"/>
  <circle cx="201" cy="201" r="10" fill="currentColor" stroke="none" stroke-width="0"/>
  <circle cx="204" cy="204" r="10" fill="currentColor" stroke="none" stroke-width="0"/>
  <circle cx="207" cy="207" r="10" fill="currentColor" stroke="none" stroke-width="0"/>
  <circle cx="210" cy="210" r="10" fill="currentColor" stroke="none" stroke-width="0"/>
  <circle cx="213" cy="213" r="10" fill="currentColor" stroke="none" stroke-width="0"/>
  <circle cx="216" cy="216" r="10" fill="currentColor" stroke="none" stroke-width="0"/>
  <circle cx="219" cy="219" r="10" fill="currentColor" stroke="none" stroke-width="0"/>
  <circle cx="222" cy="222" r="10" fill="currentColor" stroke="none" stroke-width="0"/>
  <circle cx="225" cy="225" r="10" fill="currentColor" stroke="none" stroke-width="0"/>
  <circle cx="228" cy="228" r="10" fill="currentColor" stroke="none" stroke-width="0"/>
  <circle cx="231" cy="231" r="10" fill="currentColor" stroke="none" stroke-width="0"/>
  <circle cx="234" cy="234" r="10" fill="currentColor" stroke="none" stroke-width="0"/>
  <circle cx="237" cy="237" r="10" fill="currentColor" stroke="none" stroke-width="0"/>
</svg>
